<?xml version="1.0" encoding="utf-8"?>
<!-- Generator: Adobe Illustrator 16.0.0, SVG Export Plug-In . SVG Version: 6.00 Build 0)  -->
<!DOCTYPE svg PUBLIC "-//W3C//DTD SVG 1.1//EN" "http://www.w3.org/Graphics/SVG/1.1/DTD/svg11.dtd">
<svg version="1.1" id="_x37C_" xmlns="http://www.w3.org/2000/svg" xmlns:xlink="http://www.w3.org/1999/xlink" x="0px" y="0px"
	 width="595px" height="841px" viewBox="0 0 595 841" enable-background="new 0 0 595 841" xml:space="preserve">
<g>
	<g>
		<g>
			
				<path fill-rule="evenodd" clip-rule="evenodd" fill="none" stroke="#000000" stroke-width="2.8346" stroke-linecap="round" stroke-linejoin="round" stroke-miterlimit="22.9256" d="
				M247.544,621.202c0-2.165-0.433-3.897,0.217-6.497c0.649-2.599,11.261-13.21,13.644-15.159s2.599-11.262,3.032-16.893
				s-8.229-19.707-16.026-31.294c-7.796-11.586-14.727-21.332-17.975-23.497c-3.249-2.166-8.446-4.332-11.478-7.363
				c-3.032-3.032-10.179-1.083-19.708,0s-20.574,2.382-27.937,6.28s-12.344,11.911-17.109,20.357s-4.207,11.4-5.715,20.341
				c-1.508,8.94,0.646,13.357,1.508,16.912s4.524,13.896,4.955,15.834c0.431,1.939,3.124,2.154,5.17,4.201
				c2.046,2.047,1.155,0,1.155,0c5.931,0,18.962,1.182,19.409,3.413c0.446,2.23,4.239,11.154,4.239,15.616
				c0,4.461-3.346,25.432-5.577,30.116"/>
			
				<path fill-rule="evenodd" clip-rule="evenodd" fill="none" stroke="#000000" stroke-width="2.8346" stroke-linecap="round" stroke-linejoin="round" stroke-miterlimit="22.9256" d="
				M264.653,647.84c-5.198-4.98-8.013-6.28-8.229-10.395c-0.217-4.115-6.064-16.676-11.478-16.243
				c-5.415,0.434-9.746,0.65-12.344-0.433c-2.599-1.083-8.013,0.217-8.013,4.98c0,4.765-0.65,17.326-0.65,17.326
				s4.981,0.866,4.981,2.599s-0.426,3.678,1.578,5.636c2.005,1.958,3.901,4.895,9.319,8.756c5.417,3.861,18.339,12.029,25.27,14.628
				s12.777,3.249,16.459,3.465"/>
			
				<path fill-rule="evenodd" clip-rule="evenodd" fill="none" stroke="#000000" stroke-width="2.8346" stroke-linecap="round" stroke-linejoin="round" stroke-miterlimit="22.9256" d="
				M227.187,651.305c0,4.765,0.433,7.797,3.898,12.128c3.465,4.332,10.395,9.746,8.663,12.777c-1.732,3.032-7.363,7.797-3.682,9.529
				s13.21,4.548,15.81,6.931c2.599,2.382,2.599,7.579,2.599,8.662"/>
			
				<path fill-rule="evenodd" clip-rule="evenodd" fill="none" stroke="#000000" stroke-width="2.8346" stroke-linecap="round" stroke-linejoin="round" stroke-miterlimit="22.9256" d="
				M236.066,685.739c-8.229,4.548-9.215,8.782-10.022,10.022c-0.806,1.239,0.926,12.717,1.792,17.698s5.198,9.529,8.446,9.962
				c3.248,0.434,9.529-0.433,12.127-0.433s4.608-3.525,5.011-5.012"/>
			
				<path fill-rule="evenodd" clip-rule="evenodd" fill="none" stroke="#000000" stroke-width="2.8346" stroke-linecap="round" stroke-linejoin="round" stroke-miterlimit="22.9256" d="
				M151.108,787.742c-3.366-5.889-11.539-21.273-12.62-29.807s-1.177-11.558-6.808-18.055s-5.739-7.796-6.605-12.128
				c-0.866-4.331-1.191-30.86-0.541-35.733c0.649-4.872,9.745-23.173,12.669-23.173s8.663,3.574,11.37,4.115
				s8.555-0.758,13.103-2.382c4.548-1.625,4.981-3.032,7.038-5.739"/>
			
				<path fill-rule="evenodd" clip-rule="evenodd" fill="none" stroke="#000000" stroke-width="2.8346" stroke-linecap="round" stroke-linejoin="round" stroke-miterlimit="22.9256" d="
				M170.663,666.248c-0.812-2.544-1.732-1.949-0.649-5.306c1.083-3.356,3.566-6.612,7.255-7.796
				c3.688-1.185,6.419,1.373,11.132,7.029c4.713,5.655,6.501,8.049,6.556,10.387c0.054,2.339,0.054,9.463,0.65,12.618
				c0.596,3.154,3.847,9.844,3.847,13.433c0,3.59,0.596,7.561-2.925,8.104c-3.522,0.544-9.536-1.522-13.058,0.218
				c-3.521,1.74-8.181,6.363-9.21,9.681s-0.348,7.291,0.518,9.998s5.522,10.07,4.548,12.669s-2.682,13.444-3.007,14.478"/>
			
				<path fill-rule="evenodd" clip-rule="evenodd" fill="none" stroke="#000000" stroke-width="2.8346" stroke-linecap="round" stroke-linejoin="round" stroke-miterlimit="22.9256" d="
				M174.777,766.735c0.866-2.166,0.65-12.561,0.65-12.561s7.146,17.108,9.313,26.638"/>
			
				<path fill-rule="evenodd" clip-rule="evenodd" fill="none" stroke="#000000" stroke-width="2.8346" stroke-linecap="round" stroke-linejoin="round" stroke-miterlimit="22.9256" d="
				M151.864,679.786c-1.655,4.728,0.591,11.229,1.773,13.83"/>
			
				<path fill-rule="evenodd" clip-rule="evenodd" fill="none" stroke="#000000" stroke-width="2.8346" stroke-linecap="round" stroke-linejoin="round" stroke-miterlimit="22.9256" d="
				M156.356,687.352c-0.118,7.446-0.946,12.766,1.891,9.692c-1.418,6.501-4.846,12.529,1.537,12.411"/>
			
				<path fill-rule="evenodd" clip-rule="evenodd" fill="none" stroke="#000000" stroke-width="2.8346" stroke-linecap="round" stroke-linejoin="round" stroke-miterlimit="22.9256" d="
				M160.611,703.899c-0.828,5.556-0.616,13.687,4.184,10.566"/>
			
				<path fill-rule="evenodd" clip-rule="evenodd" fill="none" stroke="#000000" stroke-width="2.8346" stroke-linecap="round" stroke-linejoin="round" stroke-miterlimit="22.9256" d="
				M165.221,710.401c-0.426,5.91-2.364,7.801,0.236,9.692"/>
			
				<path fill-rule="evenodd" clip-rule="evenodd" fill="none" stroke="#000000" stroke-width="2.8346" stroke-linecap="round" stroke-linejoin="round" stroke-miterlimit="22.9256" d="
				M187.444,680.968c-1.418,6.502,1.773,15.131,0.236,21.041"/>
			
				<line fill-rule="evenodd" clip-rule="evenodd" fill="none" stroke="#000000" stroke-width="2.8346" stroke-linecap="round" stroke-linejoin="round" stroke-miterlimit="22.9256" x1="172.612" y1="665.165" x2="180.841" y2="674.153"/>
			
				<path fill-rule="evenodd" clip-rule="evenodd" fill="none" stroke="#000000" stroke-width="2.8346" stroke-linecap="round" stroke-linejoin="round" stroke-miterlimit="22.9256" d="
				M171.204,721.581c0,0-1.732,5.09-0.758,10.72"/>
			
				<path fill-rule="evenodd" clip-rule="evenodd" fill="none" stroke="#000000" stroke-width="2.8346" stroke-linecap="round" stroke-linejoin="round" stroke-miterlimit="22.9256" d="
				M199.453,696.613c5.42,4.914,4.048,7.144,4.391,13.831c0.343,6.688-0.514,17.664,1.715,20.065
				c2.229,2.401,3.601,1.543,3.944,4.116c0.343,2.572-1.543,2.229,9.947,5.487c11.49,3.259,23.323,4.116,26.925,2.572
				c3.602-1.543,4.802-3.258,8.403-5.487"/>
			
				<path fill-rule="evenodd" clip-rule="evenodd" fill="none" stroke="#000000" stroke-width="2.8346" stroke-linecap="round" stroke-linejoin="round" stroke-miterlimit="22.9256" d="
				M193.897,734.626c8.232,9.432,9.089,7.889,21.78,10.118c12.69,2.229,16.635,1.543,23.152,1.372
				c6.517-0.172,18.865-2.744,35.157-11.147s20.922-11.662,25.039-15.777c9.946,7.546,29.289,22.188,57.347,23.227
				s26.499-1.386,39.143-2.078c12.644-0.693,17.493-1.039,21.822-2.599c4.33-1.559,7.621-4.33,10.046-5.542"/>
		</g>
		<g>
			
				<path fill-rule="evenodd" clip-rule="evenodd" fill="none" stroke="#000000" stroke-width="2.8346" stroke-linecap="round" stroke-linejoin="round" stroke-miterlimit="22.9256" d="
				M258.551,735.998c2.744,0.171,3.258-1.372,5.831-2.916c2.573-1.543,2.401-0.515,4.288-4.287c1.886-3.773,2.229-5.316,4.459-7.718
				"/>
			
				<path fill-rule="evenodd" clip-rule="evenodd" fill="none" stroke="#000000" stroke-width="2.8346" stroke-linecap="round" stroke-linejoin="round" stroke-miterlimit="22.9256" d="
				M380.914,742.12c7.152,4.628,19.275,10.689,37.981,12.075"/>
			
				<path fill-rule="evenodd" clip-rule="evenodd" fill="none" stroke="#000000" stroke-width="2.8346" stroke-linecap="round" stroke-linejoin="round" stroke-miterlimit="22.9256" d="
				M289.511,780.296c5.547-31.201,4.05-44.155,9.014-50.962c2.427,7.28,5.2,40.562,9.707,53.042"/>
			
				<path fill-rule="evenodd" clip-rule="evenodd" fill="none" stroke="#000000" stroke-width="2.8346" stroke-linecap="round" stroke-linejoin="round" stroke-miterlimit="22.9256" d="
				M465.756,313.024c-2.695,11.296-4.947,27.75-6.679,36.236c-1.732,8.486-12.99,59.233-16.627,77.766
				c-3.638,18.532-4.677,30.31-4.677,35.159s7.465,26.992,9.626,40.739c2.161,13.746,1.632,22.997,3.884,27.847
				c2.251,4.85,12.297,19.917,12.297,24.94c0,5.022-0.347,15.067,0.52,21.476c0.866,6.409,17.124,83.158,17.124,90.438
				s-1.71,23.872-1.017,42.75c0.692,18.879,0.52,31.695,0,35.333c-0.52,3.637-4.53,25.573-4.53,33.2"/>
		</g>
	</g>
	<g>
		<g>
			
				<line fill-rule="evenodd" clip-rule="evenodd" fill="none" stroke="#000000" stroke-width="2.8346" stroke-linecap="round" stroke-linejoin="round" stroke-miterlimit="22.9256" x1="332.13" y1="334.164" x2="331.65" y2="303.486"/>
			<g>
				<g>
					
						<line fill-rule="evenodd" clip-rule="evenodd" fill="none" stroke="#000000" stroke-width="2.8346" stroke-linecap="round" stroke-linejoin="round" stroke-miterlimit="22.9256" x1="251.179" y1="95.206" x2="269.092" y2="95.059"/>
					
						<line fill-rule="evenodd" clip-rule="evenodd" fill="none" stroke="#000000" stroke-width="2.8346" stroke-linecap="round" stroke-linejoin="round" stroke-miterlimit="22.9256" x1="253.381" y1="87.13" x2="253.447" y2="95.188"/>
					
						<path fill-rule="evenodd" clip-rule="evenodd" fill="none" stroke="#000000" stroke-width="2.8346" stroke-linecap="round" stroke-linejoin="round" stroke-miterlimit="22.9256" d="
						M268.553,125.421c5.078,0.112,7.825,0.621,9.454-1.108c1.628-1.73,7.835-2.748,7.938-4.274"/>
					
						<path fill-rule="evenodd" clip-rule="evenodd" fill="none" stroke="#000000" stroke-width="2.8346" stroke-linecap="round" stroke-linejoin="round" stroke-miterlimit="22.9256" d="
						M282.087,122.271c-0.214,3.364-1.639,5.807,3.145,6.315c4.783,0.509,5.394,0.814,5.394,0.814"/>
					
						<path fill-rule="evenodd" clip-rule="evenodd" fill="none" stroke="#000000" stroke-width="2.8346" stroke-linecap="round" stroke-linejoin="round" stroke-miterlimit="22.9256" d="
						M268.918,176.716c7.349-1.175,11.576,1.996,13.292-0.91"/>
					
						<path fill-rule="evenodd" clip-rule="evenodd" fill="none" stroke="#000000" stroke-width="2.8346" stroke-linecap="round" stroke-linejoin="round" stroke-miterlimit="22.9256" d="
						M282.343,169.861c-0.661,3.038-1.585,8.454,1.849,9.775c3.435,1.32,6.208,5.151,6.208,5.812"/>
					
						<path fill-rule="evenodd" clip-rule="evenodd" fill="none" stroke="#000000" stroke-width="2.8346" stroke-linecap="round" stroke-linejoin="round" stroke-miterlimit="22.9256" d="
						M264.587,208.069c4.358,0.553,15.153,1.314,18.328-0.591"/>
					
						<path fill-rule="evenodd" clip-rule="evenodd" fill="none" stroke="#000000" stroke-width="2.8346" stroke-linecap="round" stroke-linejoin="round" stroke-miterlimit="22.9256" d="
						M284.438,196.304c-1.016,3.175-4.063,13.462,2.667,15.366"/>
					
						<path fill-rule="evenodd" clip-rule="evenodd" fill="none" stroke="#000000" stroke-width="2.8346" stroke-linecap="round" stroke-linejoin="round" stroke-miterlimit="22.9256" d="
						M281.645,181.318c-1.143,3.937,0.126,7.874,1.396,8.382s5.842,1.904,6.731,1.65"/>
					
						<path fill-rule="evenodd" clip-rule="evenodd" fill="none" stroke="#000000" stroke-width="2.8346" stroke-linecap="round" stroke-linejoin="round" stroke-miterlimit="22.9256" d="
						M253.552,184.26c1.806,2.9,4.27,7.703,3.482,11.588"/>
					
						<path fill-rule="evenodd" clip-rule="evenodd" fill="none" stroke="#000000" stroke-width="2.8346" stroke-linecap="round" stroke-linejoin="round" stroke-miterlimit="22.9256" d="
						M254.391,241.646c3.408,0,7.101-0.567,9.231-1.988c2.13-1.42,6.391-4.118,6.249-6.675"/>
					
						<path fill-rule="evenodd" clip-rule="evenodd" fill="none" stroke="#000000" stroke-width="2.8346" stroke-linecap="round" stroke-linejoin="round" stroke-miterlimit="22.9256" d="
						M267.45,236.878c5.12,0.65,13.072,0.509,14.492-1.622"/>
					
						<path fill-rule="evenodd" clip-rule="evenodd" fill="none" stroke="#000000" stroke-width="2.8346" stroke-linecap="round" stroke-linejoin="round" stroke-miterlimit="22.9256" d="
						M281.516,232.983c0.426,2.272,1.846,9.373,3.266,9.657"/>
					
						<path fill-rule="evenodd" clip-rule="evenodd" fill="none" stroke="#000000" stroke-width="2.8346" stroke-linecap="round" stroke-linejoin="round" stroke-miterlimit="22.9256" d="
						M271.575,261.387c0.284,0.71,0,8.663,0.71,9.231"/>
					
						<path fill-rule="evenodd" clip-rule="evenodd" fill="none" stroke="#000000" stroke-width="2.8346" stroke-linecap="round" stroke-linejoin="round" stroke-miterlimit="22.9256" d="
						M282.226,261.955c0.994,1.704,3.408,5.965,4.687,7.669"/>
					
						<path fill-rule="evenodd" clip-rule="evenodd" fill="none" stroke="#000000" stroke-width="2.8346" stroke-linecap="round" stroke-linejoin="round" stroke-miterlimit="22.9256" d="
						M271.749,265.082c2.098-0.003,10.478,1.564,12.82,0"/>
					
						<path fill-rule="evenodd" clip-rule="evenodd" fill="none" stroke="#000000" stroke-width="2.8346" stroke-linecap="round" stroke-linejoin="round" stroke-miterlimit="22.9256" d="
						M280.112,293.619c-3.463-1.875-7.936-4.328-9.09-2.886c-1.154,1.443-0.721,8.225-2.02,8.225c-1.298,0-8.801-1.299-11.976,2.886
						c-3.174,4.185-3.03,5.339-1.731,8.945c1.299,3.607,5.916,4.762,9.956,3.896c4.04-0.865,7.07,2.309,7.214,6.926
						c0.144,4.617-2.741,7.647-6.06,7.358c-3.318-0.288-6.925-0.288-8.224,0"/>
					
						<path fill-rule="evenodd" clip-rule="evenodd" fill="none" stroke="#000000" stroke-width="2.8346" stroke-linecap="round" stroke-linejoin="round" stroke-miterlimit="22.9256" d="
						M286.028,318.292c-1.587,2.741-3.174,5.916-1.731,10.677c1.443,4.762,4.473,6.781,4.473,6.781"/>
					
						<path fill-rule="evenodd" clip-rule="evenodd" fill="none" stroke="#000000" stroke-width="2.8346" stroke-linecap="round" stroke-linejoin="round" stroke-miterlimit="22.9256" d="
						M272.399,323.137c2.23,0.494,9.719,0.804,11.386,1.154"/>
					
						<path fill-rule="evenodd" clip-rule="evenodd" fill="none" stroke="#000000" stroke-width="2.8346" stroke-linecap="round" stroke-linejoin="round" stroke-miterlimit="22.9256" d="
						M261.515,378.845c3.502-0.906,9.178-2.476,10.868-3.864s1.147-2.355,1.449-2.718"/>
					
						<path fill-rule="evenodd" clip-rule="evenodd" fill="none" stroke="#000000" stroke-width="2.8346" stroke-linecap="round" stroke-linejoin="round" stroke-miterlimit="22.9256" d="
						M277.636,372.143c2.596,2.656,6.642,3.381,7.91,2.717c1.268-0.664,1.811-1.63,1.811-0.846c0,0.785,0.725,6.4,1.812,6.642"/>
				</g>
				<g>
					<g>
						
							<line fill-rule="evenodd" clip-rule="evenodd" fill="none" stroke="#000000" stroke-width="2.8346" stroke-linecap="round" stroke-linejoin="round" stroke-miterlimit="22.9256" x1="228.812" y1="19.093" x2="216.815" y2="65.773"/>
						<g>
							
								<path fill-rule="evenodd" clip-rule="evenodd" fill="none" stroke="#000000" stroke-width="2.8346" stroke-linecap="round" stroke-linejoin="round" stroke-miterlimit="22.9256" d="
								M227.214,61.706c0,0-52.512,29.572-61.08,34.823c-8.568,5.252-15.477,10.503-22.939,12.99s-32.613,13.542-45.326,17.688
								c-12.713,4.146-23.146,26.05-33.256,39.915c-10.11,13.864-22.53,50.26-24.841,65.857
								c-2.311,15.599-4.333,28.019-4.333,28.019l8.088,34.951c0,0-18.198,69.613-23.108,82.611
								c-4.91,12.998-6.644,52.859-6.644,52.859l-6.644,13.287"/>
							
								<path fill-rule="evenodd" clip-rule="evenodd" fill="none" stroke="#000000" stroke-width="2.8346" stroke-linecap="round" stroke-linejoin="round" stroke-miterlimit="22.9256" d="
								M158.456,181.604c-3.852-10.701-14.125-36.597-22.472-37.239c-8.347-0.642-30.39-1.284-29.748-6.849s3.247-5.321,6.279-7.054
								c3.032-1.733,0-5.198,14.293-4.332c14.293,0.866,24.58-0.866,26.638,0.217c2.057,1.083,14.293,12.669,22.523,18.083
								c8.229,5.415,17.434,5.956,19.599,9.313c2.166,3.357,1.625,5.522,4.765,6.822c3.14,1.299,9.204,0.541,11.261,0.541"/>
							
								<path fill-rule="evenodd" clip-rule="evenodd" fill="none" stroke="#000000" stroke-width="2.8346" stroke-linecap="round" stroke-linejoin="round" stroke-miterlimit="22.9256" d="
								M162.758,132.735c3.357-1.624,7.905-1.624,11.153-2.058c3.249-0.433,6.714-2.273,8.879-2.273s21.224,0.324,24.147,0.217"/>
							
								<path fill-rule="evenodd" clip-rule="evenodd" fill="none" stroke="#000000" stroke-width="2.8346" stroke-linecap="round" stroke-linejoin="round" stroke-miterlimit="22.9256" d="
								M169.417,139.797c0.813-2.08-0.378-4.354,4.278-4.354c4.656,0,9.312,1.732,10.612,2.707c1.299,0.975,4.873,2.058,8.229,0.975
								c3.356-1.083,6.822-4.223,11.261-4.548c4.44-0.325,12.453,0.542,13.319,2.815c0.866,2.274,8.988,35.733,8.338,41.364
								s-4.112,7.78-4.329,10.391c-0.216,2.611-21.442,75.262-24.474,82.408c-3.032,7.146-5.198,18.191-6.714,19.274
								c-1.516,1.083-7.363,5.631-9.312,5.631c-1.949,0-12.669-3.14-16.567-7.363c-3.898-4.223-9.681-11.41-10.819-16.958
								c-1.138-5.547-6.615-34.693-10.297-44.222c-3.681-9.529-13.102-19.491-16.892-24.364s-3.249-12.886-0.216-26.096
								c3.032-13.211,12.216-22.849,19.535-23.336"/>
							
								<path fill-rule="evenodd" clip-rule="evenodd" fill="none" stroke="#000000" stroke-width="2.8346" stroke-linecap="round" stroke-linejoin="round" stroke-miterlimit="22.9256" d="
								M135.503,159.408c-4.473-3.175-15.518-7.507-19.849-7.507c-4.332,0-15.16,0.217-19.058,12.994"/>
							
								<path fill-rule="evenodd" clip-rule="evenodd" fill="none" stroke="#000000" stroke-width="2.8346" stroke-linecap="round" stroke-linejoin="round" stroke-miterlimit="22.9256" d="
								M101.365,156.69c-8.233,0.409-7.8,0.842-10.399,2.574c-2.599,1.732-4.981,1.949-6.714,4.765s-6.93,15.81-9.096,20.574
								S74.94,199.33,74.94,199.33l5.198,19.058c0,0-3.682,25.771-4.331,33.567c-0.65,7.797-18.408,133.622-24.472,153.979
								s-5.631,25.556-10.179,30.104s-12.994,11.261-11.478,19.058c1.516,7.796,3.249,12.344,9.313,13.644
								c6.063,1.3,8.229,0.866,11.694-7.58c4.981,0,1.299-3.031,6.714-3.031c5.414,0,9.096,1.082,9.745,5.63
								c0.65,4.549,0.65,5.848,0.65,5.848l-5.089,5.414v2.491l2.274,3.356l7.905,0.866c0,0,9.313-7.038,11.478-8.771
								c2.166-1.733,4.873-3.466,3.14-12.236c-1.732-8.771-6.389-15.701-8.446-18.084c-2.057-2.382-0.541-23.605,1.083-31.186
								c1.625-7.58,7.796-57.715,7.796-72.441s9.096-58.257,12.128-66.486c3.032-8.229,19.274-53.492,21.007-57.823
								s8.39-7.004,8.39-7.004"/>
							
								<path fill-rule="evenodd" clip-rule="evenodd" fill="none" stroke="#000000" stroke-width="2.8346" stroke-linecap="round" stroke-linejoin="round" stroke-miterlimit="22.9256" d="
								M53.515,460.276c4.103,0.416,4.93,1.555,4.93,1.555l5.897,5.897"/>
							
								<polyline fill-rule="evenodd" clip-rule="evenodd" fill="none" stroke="#000000" stroke-width="2.8346" stroke-linecap="round" stroke-linejoin="round" stroke-miterlimit="22.9256" points="
								91.755,178.669 92.214,184.639 89.229,190.265 89.229,191.757 							"/>
							
								<polyline fill-rule="evenodd" clip-rule="evenodd" fill="none" stroke="#000000" stroke-width="2.8346" stroke-linecap="round" stroke-linejoin="round" stroke-miterlimit="22.9256" points="
								98.643,181.654 98.299,194.053 96.347,196.005 							"/>
							
								<polyline fill-rule="evenodd" clip-rule="evenodd" fill="none" stroke="#000000" stroke-width="2.8346" stroke-linecap="round" stroke-linejoin="round" stroke-miterlimit="22.9256" points="
								103.121,189.69 105.875,196.923 105.875,204.01 99.332,216.21 							"/>
							
								<path fill-rule="evenodd" clip-rule="evenodd" fill="none" stroke="#000000" stroke-width="2.8346" stroke-linecap="round" stroke-linejoin="round" stroke-miterlimit="22.9256" d="
								M115.519,189.461l1.148,9.873c0,0,5.984,5.243,11.488,6.806"/>
							
								<polyline fill-rule="evenodd" clip-rule="evenodd" fill="none" stroke="#000000" stroke-width="2.8346" stroke-linecap="round" stroke-linejoin="round" stroke-miterlimit="22.9256" points="
								145.657,170.881 143.419,177.437 142.779,183.911 145.244,191.305 							"/>
							
								<path fill-rule="evenodd" clip-rule="evenodd" fill="none" stroke="#000000" stroke-width="2.8346" stroke-linecap="round" stroke-linejoin="round" stroke-miterlimit="22.9256" d="
								M141.005,141.488l6.246,1.311c0,0,13.801,4.626,15.575,8.019c1.773,3.393,4.907,6.773,12.417,8.795
								c7.51,2.022,13.287,5.2,19.353,10.977c6.066,5.777,10.688,9.532,10.688,12.421s2.399,14.517,5.573,16.97"/>
							
								<path fill-rule="evenodd" clip-rule="evenodd" fill="none" stroke="#000000" stroke-width="2.8346" stroke-linecap="round" stroke-linejoin="round" stroke-miterlimit="22.9256" d="
								M209.037,132.208c0.44-1.908,0.44-3.523,2.496-6.02c2.056-2.497,4.258-6.021,5.874-9.251s0.734-9.838,1.615-11.159
								c0.881-1.322,11.747-8.517,15.858-16.739c3.377,0.146,10.278-3.965,10.278-3.965"/>
							
								<path fill-rule="evenodd" clip-rule="evenodd" fill="none" stroke="#000000" stroke-width="2.8346" stroke-linecap="round" stroke-linejoin="round" stroke-miterlimit="22.9256" d="
								M212.282,135.098c3.362-3.036,11.585-9.791,13.788-13.168s4.552-4.552,7.342-5.727c2.79-1.175,7.488-3.671,7.929-4.992
								c0.44-1.321,4.442,0.11,5.011-5.011"/>
							
								<path fill-rule="evenodd" clip-rule="evenodd" fill="none" stroke="#000000" stroke-width="2.8346" stroke-linecap="round" stroke-linejoin="round" stroke-miterlimit="22.9256" d="
								M227.545,120c-1.476-5.999-3.531-6.733,4.985-12.02c8.516-5.286,14.683-9.691,14.683-9.691"/>
							
								<path fill-rule="evenodd" clip-rule="evenodd" fill="none" stroke="#000000" stroke-width="2.8346" stroke-linecap="round" stroke-linejoin="round" stroke-miterlimit="22.9256" d="
								M131.9,124.989c5.689,0.126,14.918-1.138,17.7-3.414c2.781-2.275,13.401-0.632,18.332-1.391s45.766-2.022,46.777-2.401"/>
							
								<path fill-rule="evenodd" clip-rule="evenodd" fill="none" stroke="#000000" stroke-width="2.8346" stroke-linecap="round" stroke-linejoin="round" stroke-miterlimit="22.9256" d="
								M218.777,143.622c8.652-3.13,10.28-5.775,12.825-7.403c2.544-1.629,17.3-7.327,18.419-3.46
								c1.12,3.866,1.832,7.632,0.814,8.955c-1.018,1.322-17.707,3.154-21.371,6.614s-7.732,7.938-7.732,7.938"/>
							
								<path fill-rule="evenodd" clip-rule="evenodd" fill="none" stroke="#000000" stroke-width="2.8346" stroke-linecap="round" stroke-linejoin="round" stroke-miterlimit="22.9256" d="
								M218.195,141.303c4.96-4.066,3.129-4.982,8.828-9.257c5.699-4.273,11.906-7.327,15.163-11.193
								c3.256-3.867,5.393-4.274,9.464-4.071c4.07,0.204,17.3-1.119,17.096,2.951c-0.204,4.071,0.611,5.598-1.119,6.818
								c-1.73,1.222-2.137,3.358-1.527,4.376c-0.407-3.358-2.239-3.664-7.938-2.442c-5.699,1.221-6.359,2.656-6.716,5.699
								c-0.357,3.042,5.801,4.375,8.446,5.8c2.646,1.425,2.85,4.274,2.85,4.274"/>
							
								<path fill-rule="evenodd" clip-rule="evenodd" fill="none" stroke="#000000" stroke-width="2.8346" stroke-linecap="round" stroke-linejoin="round" stroke-miterlimit="22.9256" d="
								M226.313,177.897c3.588-3.017,4.645-3.413,5.438-4.998s5.152,0.265,8.851-1.585c3.698-1.85,3.434-5.151,5.812-5.151
								c2.377,0,4.359-0.265,6.076,0.925c1.717,1.188,2.114,1.717,6.208,1.717s8.058,4.095,9.643,6.604
								c1.585,2.51,0.925,7.397-1.057,7.397c-1.981,0-6.34,1.321-11.492,1.453c-5.151,0.132-7.265-0.66-11.756-0.66
								s-7.793,1.057-11.228,2.642s-7.397,1.717-8.718,3.566"/>
							
								<path fill-rule="evenodd" clip-rule="evenodd" fill="none" stroke="#000000" stroke-width="2.8346" stroke-linecap="round" stroke-linejoin="round" stroke-miterlimit="22.9256" d="
								M225.146,165.767c3.434-3.566,5.548-6.473,7.529-7.926s13.077-2.774,14.663-4.095c1.585-1.321,1.188,10.91,0,14.173"/>
							
								<path fill-rule="evenodd" clip-rule="evenodd" fill="none" stroke="#000000" stroke-width="2.8346" stroke-linecap="round" stroke-linejoin="round" stroke-miterlimit="22.9256" d="
								M217.006,207.098c4.063-1.523,4.953-3.683,9.524-4.317s9.271-0.254,11.937-1.905c2.667-1.65,9.144-5.333,14.223-5.46
								c5.08-0.128,5.715,0.889,9.144,4.063s3.81,4.19,3.175,6.984s-1.524,5.207-4.445,5.588"/>
							
								<path fill-rule="evenodd" clip-rule="evenodd" fill="none" stroke="#000000" stroke-width="2.8346" stroke-linecap="round" stroke-linejoin="round" stroke-miterlimit="22.9256" d="
								M209.397,230.503c4.52-1.922,5.798-3.199,8.78-3.342c2.982-0.142,5.681-4.261,10.509-6.249
								c4.829-1.988,8.947,0.143,10.367-1.136c1.42-1.278,3.267-3.408,5.113-3.408s4.687-0.284,5.396-0.143"/>
							
								<path fill-rule="evenodd" clip-rule="evenodd" fill="none" stroke="#000000" stroke-width="2.8346" stroke-linecap="round" stroke-linejoin="round" stroke-miterlimit="22.9256" d="
								M204.193,247.932c6.599-3.16,25.771-12.96,29.179-16.936c2.698,0.283,5.255,0.994,7.101,0.71s9.941-3.409,9.941-3.409"/>
							
								<path fill-rule="evenodd" clip-rule="evenodd" fill="none" stroke="#000000" stroke-width="2.8346" stroke-linecap="round" stroke-linejoin="round" stroke-miterlimit="22.9256" d="
								M202.413,257.553c5.113-2.131,10.225-3.267,13.065-4.971c2.841-1.704,4.687-4.545,7.101-4.545s7.385,0.143,9.373-1.42
								s6.675-2.84,7.953-2.84c1.278,0,9.089,0,9.089,0"/>
							
								<path fill-rule="evenodd" clip-rule="evenodd" fill="none" stroke="#000000" stroke-width="2.8346" stroke-linecap="round" stroke-linejoin="round" stroke-miterlimit="22.9256" d="
								M195.156,275.535c5.695-1.935,11.376-6.054,19.755-9.178s18.462-4.687,34.794-5.965"/>
							
								<path fill-rule="evenodd" clip-rule="evenodd" fill="none" stroke="#000000" stroke-width="2.8346" stroke-linecap="round" stroke-linejoin="round" stroke-miterlimit="22.9256" d="
								M249.975,271.229c0,0-1.865,1.6-2.398,2.398c-0.533,0.8-15.987,2.531-18.519,3.73s-17.187,7.594-30.509,14.122
								s-11.991,7.594-13.856,7.728c-1.865,0.133-17.319,4.796-22.116,12.39c-4.796,7.595-13.763,18.671-16.648,23.433
								c-2.886,4.761-5.338,11.687-4.617,12.985c0.722,1.298,4.04,11.109,7.792,13.995c3.751-6.06,6.637-9.09,9.811-13.418
								c3.174-4.329,10.821-11.255,13.418-16.593c6.637-2.309,7.936-3.463,13.996-7.358s12.408-6.926,17.458-10.244
								c5.05-3.318,7.214-3.896,15.438-4.762c8.224-0.865,17.17-3.318,21.643-5.915c4.473-2.598,9.234-0.289,12.986-0.289"/>
							
								<path fill-rule="evenodd" clip-rule="evenodd" fill="none" stroke="#000000" stroke-width="2.8346" stroke-linecap="round" stroke-linejoin="round" stroke-miterlimit="22.9256" d="
								M159,283.045c-9.847,7.384-13.237,11.622-15.61,14.843s-6.95,13.561-5.594,19.154c1.356,5.595,1.177,13.937,8.132,17.987"/>
							
								<path fill-rule="evenodd" clip-rule="evenodd" fill="none" stroke="#000000" stroke-width="2.8346" stroke-linecap="round" stroke-linejoin="round" stroke-miterlimit="22.9256" d="
								M150.754,259.698c-5.499,4.287-8.042,8.355-11.432,16.322s-9.221,21.49-0.627,32.104"/>
							
								<path fill-rule="evenodd" clip-rule="evenodd" fill="none" stroke="#000000" stroke-width="2.8346" stroke-linecap="round" stroke-linejoin="round" stroke-miterlimit="22.9256" d="
								M154.046,274.74c-4.384,1.619-10.317,5.01-10.486,20.604"/>
							
								<path fill-rule="evenodd" clip-rule="evenodd" fill="none" stroke="#000000" stroke-width="2.8346" stroke-linecap="round" stroke-linejoin="round" stroke-miterlimit="22.9256" d="
								M165.868,290.669c-8.408,5.354-11.12,10.309-15.188,14.338c-4.068,4.03-4.747,11.866-4.747,14.578"/>
							
								<path fill-rule="evenodd" clip-rule="evenodd" fill="none" stroke="#000000" stroke-width="2.8346" stroke-linecap="round" stroke-linejoin="round" stroke-miterlimit="22.9256" d="
								M150.68,308.228c-0.169,3.052-2.372,10.455,0.678,12.714"/>
							
								<path fill-rule="evenodd" clip-rule="evenodd" fill="none" stroke="#000000" stroke-width="2.8346" stroke-linecap="round" stroke-linejoin="round" stroke-miterlimit="22.9256" d="
								M147.149,238.241c-7.274,5.543-10.565,7.274-13.509,18.879s1.06,20.037,3.82,23.414"/>
							
								<path fill-rule="evenodd" clip-rule="evenodd" fill="none" stroke="#000000" stroke-width="2.8346" stroke-linecap="round" stroke-linejoin="round" stroke-miterlimit="22.9256" d="
								M148.708,254.522c-3.464,2.425-9.465,8.543-6.032,14.489"/>
							
								<path fill-rule="evenodd" clip-rule="evenodd" fill="none" stroke="#000000" stroke-width="2.8346" stroke-linecap="round" stroke-linejoin="round" stroke-miterlimit="22.9256" d="
								M142.073,225.877c-4.623,1.973-5.662,4.051-5.662,5.264c0,1.212-0.866,9.525,2.251,12.989"/>
							
								<path fill-rule="evenodd" clip-rule="evenodd" fill="none" stroke="#000000" stroke-width="2.8346" stroke-linecap="round" stroke-linejoin="round" stroke-miterlimit="22.9256" d="
								M136.238,218.15c-4.157,2.599-6.582,6.063-7.101,7.621s-4.157,9.353-2.944,11.777s1.732,7.447,1.905,9.872
								s6.432,6.523,6.432,6.523"/>
							
								<path fill-rule="evenodd" clip-rule="evenodd" fill="none" stroke="#000000" stroke-width="2.8346" stroke-linecap="round" stroke-linejoin="round" stroke-miterlimit="22.9256" d="
								M153.903,353.603c-3.357-10.061-0.616-12.803,1.692-15.255c2.309-2.453,6.493-12.985,21.354-20.922
								c14.861-7.936,20.777-10.821,27.991-13.706c7.214-2.886,19.622-9.956,23.951-11.976c4.329-2.021,8.657-1.731,9.812-1.731
								s7.936-3.175,9.234-4.617"/>
							
								<path fill-rule="evenodd" clip-rule="evenodd" fill="none" stroke="#000000" stroke-width="2.8346" stroke-linecap="round" stroke-linejoin="round" stroke-miterlimit="22.9256" d="
								M149.103,362.01c0.149,6.552-0.041,8.066,0.149,12.232s-0.947,16.095,1.326,16.663c2.272,0.568,6.059,0.568,7.574,0.758
								c1.515,0.189,1.894-4.355,4.544-8.711c2.651-4.354,7.953-7.952,14.391-12.497c6.438-4.545,10.793-10.982,17.61-16.853
								c6.816-5.87,11.55-10.793,20.071-14.012c8.521-3.22,10.415-4.166,16.285-3.787c5.87,0.378,30.776-0.793,27.128-6.835"/>
							
								<path fill-rule="evenodd" clip-rule="evenodd" fill="none" stroke="#000000" stroke-width="2.8346" stroke-linecap="round" stroke-linejoin="round" stroke-miterlimit="22.9256" d="
								M161.081,386.177c-1.225-10.42-3.308-14.018-1.982-17.615c1.325-3.598,4.923-8.143,7.953-11.74s14.012-17.042,21.397-21.586
								c7.385-4.545,15.148-4.924,22.344-9.278c7.196-4.355,13.066-8.521,18.936-9.468c5.87-0.947,24.314-1.095,28.442-2.536"/>
							
								<path fill-rule="evenodd" clip-rule="evenodd" fill="none" stroke="#000000" stroke-width="2.8346" stroke-linecap="round" stroke-linejoin="round" stroke-miterlimit="22.9256" d="
								M158.331,391.663c-0.097,5.573,0.422,12.674,1.461,14.753c1.04,2.078,4.676,6.754,8.487,7.794"/>
							
								<path fill-rule="evenodd" clip-rule="evenodd" fill="none" stroke="#000000" stroke-width="2.8346" stroke-linecap="round" stroke-linejoin="round" stroke-miterlimit="22.9256" d="
								M166.028,407.108c1.559-6.408,2.425-10.564,2.425-12.989s19.571-18.359,24.594-24.768c5.023-6.408,4.411-6.847,8.66-9.006
								c4.249-2.16,18.532-9.354,26.672-11.777c8.141-2.425,19.745-4.504,21.823-4.504"/>
							
								<path fill-rule="evenodd" clip-rule="evenodd" fill="none" stroke="#000000" stroke-width="2.8346" stroke-linecap="round" stroke-linejoin="round" stroke-miterlimit="22.9256" d="
								M252.973,355.669c-7.967,2.078-15.934,3.811-23.728,7.274s-12.47,7.794-20.09,11.604
								c-7.621,3.81-23.729,18.012-29.963,26.325c-6.235,8.313-7.274,12.644-7.274,18.879s-0.075,7.026,0.959,8.707
								s4.912,5.257,7.497,4.955c0.862-3.576,1.12-6.463,1.12-7.109s0.732-6.291,2.413-7.756c1.68-1.465,5.903-5.084,9.393-7.454
								c3.49-2.37,14.442-13.82,17.209-16.674c2.767-2.853,18.588-15.043,22.392-18.242s17.292-2.421,20.49-5.273"/>
							
								<path fill-rule="evenodd" clip-rule="evenodd" fill="none" stroke="#000000" stroke-width="2.8346" stroke-linecap="round" stroke-linejoin="round" stroke-miterlimit="22.9256" d="
								M168.577,397.966c1.383,4.15,0.81,8.187,5.852,10.318"/>
							
								<path fill-rule="evenodd" clip-rule="evenodd" fill="none" stroke="#000000" stroke-width="2.8346" stroke-linecap="round" stroke-linejoin="round" stroke-miterlimit="22.9256" d="
								M252.699,380.069c-16.167,8.905-25.937,13.487-29.136,15.908c-3.199,2.421-6.484,8.646-8.473,9.683
								c-1.988,1.038-10.807,6.312-14.092,9.511c-3.286,3.199-4.928,5.188-5.533,9.424c-0.605,4.236-0.519,6.139,2.421,6.57
								c2.939,0.433,3.977,0.433,11.671-8.3s8.905-6.484,14.698-9.855c5.792-3.372,9.856-10.289,14.871-12.969
								c5.014-2.681,10.634-4.928,12.104-7.003"/>
							
								<path fill-rule="evenodd" clip-rule="evenodd" fill="none" stroke="#000000" stroke-width="2.8346" stroke-linecap="round" stroke-linejoin="round" stroke-miterlimit="22.9256" d="
								M99.312,274.855c8.753,11.443,8.534,15.383,12.473,36.609c3.939,21.228,5.033,31.731,7.44,44.861s4.875,32.716,10.073,46.144
								c5.198,13.427,17.109,44.396,20.574,57.823c3.465,13.428,6.714,27.938,2.382,39.849c-4.331,11.911-3.465,22.739-8.879,33.784
								c-5.415,11.045-6.714,20.791-9.313,29.453c-2.599,8.663,0.216,33.784-2.382,53.926c-2.599,20.141-5.414,44.18-8.446,52.842
								c-3.032,8.663-5.531,36.354-5.531,57.592c0,21.237,4.334,58.944,7.801,67.612"/>
							
								<path fill-rule="evenodd" clip-rule="evenodd" fill="none" stroke="#000000" stroke-width="2.8346" stroke-linecap="round" stroke-linejoin="round" stroke-miterlimit="22.9256" d="
								M121.613,370.329c-8.233,13.2-18.487,55.858-20.538,73.086c4.102,18.867-5.333,54.143-14.767,72.601"/>
						</g>
						
							<path fill-rule="evenodd" clip-rule="evenodd" fill="none" stroke="#000000" stroke-width="2.8346" stroke-linecap="round" stroke-linejoin="round" stroke-miterlimit="22.9256" d="
							M354.81,43.236c0.145-0.432,0.433-3.527,0.288-0.575c-0.144,2.951-0.936,6.695,0.576,8.855s2.376,6.192,3.6,7.2"/>
						
							<path fill-rule="evenodd" clip-rule="evenodd" fill="none" stroke="#000000" stroke-width="2.8346" stroke-linecap="round" stroke-linejoin="round" stroke-miterlimit="22.9256" d="
							M379.002,70.813c1.08,0.288,31.254,15.616,39.767,17.636"/>
						
							<line fill-rule="evenodd" clip-rule="evenodd" fill="none" stroke="#000000" stroke-width="2.8346" stroke-linecap="round" stroke-linejoin="round" stroke-miterlimit="22.9256" x1="292.639" y1="54.859" x2="296.45" y2="565.527"/>
						<g>
							
								<path fill-rule="evenodd" clip-rule="evenodd" fill="none" stroke="#000000" stroke-width="2.8346" stroke-linecap="round" stroke-linejoin="round" stroke-miterlimit="22.9256" d="
								M428.003,94.508c18.901,12.842,20.776,15.295,31.598,18.181c10.821,2.885,46.954,16.884,51.286,21.794
								c4.333,4.911,17.62,15.887,20.509,21.087c2.889,5.199,16.219,29.261,16.362,34.455c0.145,5.193,3.175,25.682,3.463,35.205
								c0.289,9.522,3.752,30.732,1.443,35.493c-2.309,4.762-3.896,16.882-3.896,25.105c0,8.225,4.002,23.12,6.023,36.696
								c2.022,13.576,12.132,55.17,13.576,69.901"/>
							
								<path fill-rule="evenodd" clip-rule="evenodd" fill="none" stroke="#000000" stroke-width="2.8346" stroke-linecap="round" stroke-linejoin="round" stroke-miterlimit="22.9256" d="
								M480.554,254.522c-3.638,11.258-16.107,50.92-15.242,56.809c0.866,5.889,6.898,5.457,7.938,13.777s6.587,31.548,9.014,46.108
								s0.583,25.712,1.621,28.392c1.037,2.681,3.423,8.886,3.077,10.098c-0.347,1.213-1.213,11.778-0.52,16.628
								c0.692,4.849,3.234,38.636,3.407,40.971c0.173,2.334,17.638,31.815,18.848,35.533"/>
						</g>
						<g>
							<g>
								
									<path fill-rule="evenodd" clip-rule="evenodd" fill="none" stroke="#000000" stroke-width="2.8346" stroke-linecap="round" stroke-linejoin="round" stroke-miterlimit="22.9256" d="
									M276.456,399.221c5.089,0.542,6.822,0.65,7.147,2.058c0.325,1.408,3.032,8.121,8.013,8.338"/>
								
									<path fill-rule="evenodd" clip-rule="evenodd" fill="none" stroke="#000000" stroke-width="2.8346" stroke-linecap="round" stroke-linejoin="round" stroke-miterlimit="22.9256" d="
									M288.8,417.305c0.108,3.465,1.516,13.211,1.516,13.211"/>
								
									<path fill-rule="evenodd" clip-rule="evenodd" fill="none" stroke="#000000" stroke-width="2.8346" stroke-linecap="round" stroke-linejoin="round" stroke-miterlimit="22.9256" d="
									M272.341,399.112c-3.573,1.191-6.497,3.141-7.472,3.357c-0.974,0.217-6.713,0.649-7.471,2.382
									c-0.758,1.732-1.408,6.064,1.083,7.147c2.491,1.082,6.93,3.897,9.204,3.897s6.822,3.79,0,12.236"/>
								
									<path fill-rule="evenodd" clip-rule="evenodd" fill="none" stroke="#000000" stroke-width="2.8346" stroke-linecap="round" stroke-linejoin="round" stroke-miterlimit="22.9256" d="
									M249.948,440.459c-0.108,4.133,0.325,5.166,2.546,6.961s4.172,1.795,8.668,2.72c4.497,0.924,13.979,3.807,11.865,4.948
									c-2.113,1.143-8.398,3.916-8.127,5.548"/>
								
									<line fill-rule="evenodd" clip-rule="evenodd" fill="none" stroke="#000000" stroke-width="2.8346" stroke-linecap="round" stroke-linejoin="round" stroke-miterlimit="22.9256" x1="289.017" y1="450.656" x2="288.692" y2="460.618"/>
								
									<path fill-rule="evenodd" clip-rule="evenodd" fill="none" stroke="#000000" stroke-width="2.8346" stroke-linecap="round" stroke-linejoin="round" stroke-miterlimit="22.9256" d="
									M249.602,479.567c3.573,3.249,3.032,3.465,6.172,3.898s12.453-1.624,13.536,1.083c1.083,2.707-1.625,5.631-0.433,9.528
									c1.191,3.898,1.624,4.44-2.382,4.656c-4.006,0.217-3.032,1.949-4.223,2.924s-5.631-2.707-6.93,0.434
									c-1.299,3.14-2.49,3.898,0.108,6.172c2.599,2.274,4.439,3.682,6.172,4.115c1.733,0.433,11.912-1.625,10.937,1.19
									s-3.249,9.746-4.44,10.179"/>
								
									<path fill-rule="evenodd" clip-rule="evenodd" fill="none" stroke="#000000" stroke-width="2.8346" stroke-linecap="round" stroke-linejoin="round" stroke-miterlimit="22.9256" d="
									M281.762,506.639c1.299,4.765,6.605,10.395,12.127,11.803"/>
								
									<path fill-rule="evenodd" clip-rule="evenodd" fill="none" stroke="#000000" stroke-width="2.8346" stroke-linecap="round" stroke-linejoin="round" stroke-miterlimit="22.9256" d="
									M269.685,497.595c0,0,5.796-1.135,7.42,0.381"/>
								
									<path fill-rule="evenodd" clip-rule="evenodd" fill="none" stroke="#000000" stroke-width="2.8346" stroke-linecap="round" stroke-linejoin="round" stroke-miterlimit="22.9256" d="
									M283.603,484.115c1.083,13.645,0,17.542,1.732,18.517s4.656-0.866,6.497,1.408"/>
								
									<path fill-rule="evenodd" clip-rule="evenodd" fill="none" stroke="#000000" stroke-width="2.8346" stroke-linecap="round" stroke-linejoin="round" stroke-miterlimit="22.9256" d="
									M284.115,493.521c4.685,2.938,7.934,3.805,10.424,3.588"/>
								
									<path fill-rule="evenodd" clip-rule="evenodd" fill="none" stroke="#000000" stroke-width="2.8346" stroke-linecap="round" stroke-linejoin="round" stroke-miterlimit="22.9256" d="
									M260.01,541.597c0.535,0,4.616,2.207,7.225,2.207c2.609,0,2.743,1.739,2.141,3.813s-2.542,7.961,0.201,8.764
									c2.743,0.803,12.71,1.405,14.583,1.07"/>
								
									<path fill-rule="evenodd" clip-rule="evenodd" fill="none" stroke="#000000" stroke-width="2.8346" stroke-linecap="round" stroke-linejoin="round" stroke-miterlimit="22.9256" d="
									M281.35,540.727c1.605,3.813,3.545,7.292,3.545,10.102s2.542,5.888,5.753,6.021"/>
								
									<path fill-rule="evenodd" clip-rule="evenodd" fill="none" stroke="#000000" stroke-width="2.8346" stroke-linecap="round" stroke-linejoin="round" stroke-miterlimit="22.9256" d="
									M280.614,560.662c3.077,0.335,10.637-0.134,12.242,1.271"/>
								
									<path fill-rule="evenodd" clip-rule="evenodd" fill="none" stroke="#000000" stroke-width="2.8346" stroke-linecap="round" stroke-linejoin="round" stroke-miterlimit="22.9256" d="
									M254.457,550.427c1.539-1.07,5.218-1.07,6.891-0.2c1.672,0.869,5.009,3.126,6.853,4.238"/>
							</g>
							<g>
								
									<path fill-rule="evenodd" clip-rule="evenodd" fill="none" stroke="#000000" stroke-width="2.8346" stroke-linecap="round" stroke-linejoin="round" stroke-miterlimit="22.9256" d="
									M286.894,288.281c-0.866,3.318-1.298,11.109,0.289,14.284c1.587,3.174,5.338,5.627,5.627,7.358"/>
								
									<line fill-rule="evenodd" clip-rule="evenodd" fill="none" stroke="#000000" stroke-width="2.8346" stroke-linecap="round" stroke-linejoin="round" stroke-miterlimit="22.9256" x1="331.643" y1="360.637" x2="334.403" y2="436.547"/>
								
									<polyline fill-rule="evenodd" clip-rule="evenodd" fill="none" stroke="#000000" stroke-width="2.8346" stroke-linecap="round" stroke-linejoin="round" stroke-miterlimit="22.9256" points="
									321.503,74.018 344.932,78.703 368.048,100.257 								"/>
							</g>
						</g>
					</g>
					
						<path fill-rule="evenodd" clip-rule="evenodd" fill="none" stroke="#000000" stroke-width="2.8346" stroke-linecap="round" stroke-linejoin="round" stroke-miterlimit="22.9256" d="
						M391.788,124.311l4.686,8.746c0,0,37.798-4.373,42.796-2.187s0.271,61.672,0.271,61.672l38.995-39.861
						c0,0,4.044-12.132,3.177,19.063c-0.866,31.196-1.155,54.305-1.155,54.305s8.666,53.437,12.132,59.792"/>
				</g>
			</g>
		</g>
		<g>
			<g>
				
					<path fill-rule="evenodd" clip-rule="evenodd" fill="none" stroke="#000000" stroke-width="2.8346" stroke-linecap="round" stroke-linejoin="round" stroke-miterlimit="22.9256" d="
					M313.728,688.013c0-3.823,1.562-13.77,2.5-18.776c0.938-5.008,3.151-11.646,3.151-14.534c0-2.888-3.463-10.818-1.732-19.931
					c1.729-9.111,0.573-21.528,1.875-31.705c1.302-10.178,3.935-23.438,3.935-23.438s6.033,24.813,6.322,27.702
					c0.288,2.889,10.49,38.319,10.49,38.319c-1.247-17.233-4.368-80.526-4.368-84.35"/>
				<g>
					
						<path fill-rule="evenodd" clip-rule="evenodd" fill="none" stroke="#000000" stroke-width="2.8346" stroke-linecap="round" stroke-linejoin="round" stroke-miterlimit="22.9256" d="
						M275.265,665.273c6.497-0.216,7.688,3.898,7.688,7.797s0.542,4.006,3.14,4.006c2.599,0,4.223,0.325,1.732,3.032
						c-2.49,2.707-3.682,2.815-2.599,4.115c1.083,1.299,2.491,0.975,2.382,3.031c-0.108,2.058,0.325,3.683,3.14,3.574
						s3.465-0.434,4.332,4.114c0.866,4.548,0.758,3.682,0.758,3.682"/>
					
						<line fill-rule="evenodd" clip-rule="evenodd" fill="none" stroke="#000000" stroke-width="2.8346" stroke-linecap="round" stroke-linejoin="round" stroke-miterlimit="22.9256" x1="297.411" y1="657.663" x2="299.024" y2="719.191"/>
					
						<line fill-rule="evenodd" clip-rule="evenodd" fill="none" stroke="#000000" stroke-width="2.8346" stroke-linecap="round" stroke-linejoin="round" stroke-miterlimit="22.9256" x1="369.726" y1="632.369" x2="369.718" y2="690.33"/>
					
						<polyline fill-rule="evenodd" clip-rule="evenodd" fill="none" stroke="#000000" stroke-width="2.8346" stroke-linecap="round" stroke-linejoin="round" stroke-miterlimit="22.9256" points="
						370.426,587.775 372.371,603.665 424.905,603.665 					"/>
				</g>
			</g>
			
				<polyline fill-rule="evenodd" clip-rule="evenodd" fill="none" stroke="#000000" stroke-width="2.8346" stroke-linecap="round" stroke-linejoin="round" stroke-miterlimit="22.9256" points="
				367.006,124.848 367.006,355.951 369.156,552.657 			"/>
		</g>
	</g>
</g>
</svg>
