<?xml version="1.0" encoding="UTF-8" standalone="no"?>
<!DOCTYPE svg PUBLIC "-//W3C//DTD SVG 1.1//EN" "http://www.w3.org/Graphics/SVG/1.1/DTD/svg11.dtd">
<!-- 由 Microsoft Visio, SVG Export 生成 DEMO业务过程2.svg 页-1 -->
<svg xmlns="http://www.w3.org/2000/svg" xmlns:xlink="http://www.w3.org/1999/xlink" xmlns:ev="http://www.w3.org/2001/xml-events" xmlns:v="http://schemas.microsoft.com/visio/2003/SVGExtensions/" width="7.74185in" height="3.85639in" viewBox="0 0 557.413 277.66" xml:space="preserve" color-interpolation-filters="sRGB" class="st33">
	<style type="text/css">
	<![CDATA[
		.st1 {fill:#ffffff;stroke:#31859b;stroke-linecap:round;stroke-linejoin:round;stroke-width:0.24}
		.st2 {fill:#ffffff;stroke:#31859b;stroke-linecap:round;stroke-linejoin:round;stroke-width:0.5;visibility:hidden}
		.st3 {fill:#205867;font-family:微软雅黑;font-size:0.75em}
		.st4 {fill:#ffffff;stroke:#31859b;stroke-linecap:round;stroke-linejoin:round;stroke-width:0.24;visibility:hidden}
		.st5 {fill:#bf9000;stroke:#ffffff;stroke-linecap:round;stroke-linejoin:round;stroke-width:0.24}
		.st6 {fill:#ffd965;stroke:#ffffff;stroke-linecap:round;stroke-linejoin:round;stroke-width:0.24;visibility:hidden}
		.st7 {fill:#ffffff;font-family:微软雅黑;font-size:1.00001em;font-weight:bold}
		.st8 {fill:#ffd965;stroke:#ffffff;stroke-linecap:round;stroke-linejoin:round;stroke-width:0.24}
		.st9 {fill:#7f6000;font-family:微软雅黑;font-size:0.75em}
		.st10 {fill:#ddd6e5;stroke:#ffffff;stroke-linecap:round;stroke-linejoin:round;stroke-width:0.24}
		.st11 {fill:#ddd6e5;stroke:#ffffff;stroke-linecap:round;stroke-linejoin:round;stroke-width:0.24;visibility:hidden}
		.st12 {fill:#54426a;font-family:微软雅黑;font-size:0.75em}
		.st13 {fill:#c1e3f7;stroke:#ffffff;stroke-linecap:round;stroke-linejoin:round;stroke-width:0.24}
		.st14 {fill:#c1e3f7;stroke:#ffffff;stroke-linecap:round;stroke-linejoin:round;stroke-width:0.24;visibility:hidden}
		.st15 {fill:#b8ff71;stroke:#ffffff;stroke-linecap:round;stroke-linejoin:round;stroke-width:0.24}
		.st16 {fill:#b8ff71;stroke:#ffffff;stroke-linecap:round;stroke-linejoin:round;stroke-width:0.24;visibility:hidden}
		.st17 {fill:#50632a;font-family:微软雅黑;font-size:0.75em}
		.st18 {fill:#ea700d;stroke:#ffffff;stroke-linecap:round;stroke-linejoin:round;stroke-width:0.24}
		.st19 {fill:#ea700d;stroke:#ffffff;stroke-linecap:round;stroke-linejoin:round;stroke-width:0.24;visibility:hidden}
		.st20 {marker-end:url(#mrkr1-276);stroke:#ea700d;stroke-linecap:round;stroke-linejoin:round;stroke-width:2}
		.st21 {fill:#ea700d;fill-opacity:1;stroke:#ea700d;stroke-opacity:1;stroke-width:0.44247787610619}
		.st22 {stroke:#ea700d;stroke-linecap:round;stroke-linejoin:round;stroke-width:2}
		.st23 {marker-end:url(#mrkr1-288);stroke:#7e649e;stroke-linecap:round;stroke-linejoin:round;stroke-width:2}
		.st24 {fill:#7e649e;fill-opacity:1;stroke:#7e649e;stroke-opacity:1;stroke-width:0.44247787610619}
		.st25 {stroke:#a5a5a5;stroke-dasharray:4.5,4.5;stroke-linecap:round;stroke-linejoin:round;stroke-width:1.5}
		.st26 {marker-end:url(#mrkr1-316);stroke:#bf9000;stroke-linecap:round;stroke-linejoin:round;stroke-width:2}
		.st27 {fill:#bf9000;fill-opacity:1;stroke:#bf9000;stroke-opacity:1;stroke-width:0.44247787610619}
		.st28 {marker-end:url(#mrkr1-322);stroke:#4bacc6;stroke-linecap:round;stroke-linejoin:round;stroke-width:2}
		.st29 {fill:#4bacc6;fill-opacity:1;stroke:#4bacc6;stroke-opacity:1;stroke-width:0.44247787610619}
		.st30 {marker-end:url(#mrkr1-373);stroke:#a5a5a5;stroke-dasharray:4.5,4.5;stroke-linecap:round;stroke-linejoin:round;stroke-width:1.5}
		.st31 {fill:#a5a5a5;fill-opacity:1;stroke:#a5a5a5;stroke-opacity:1;stroke-width:0.37313432835821}
		.st32 {stroke:#7e649e;stroke-linecap:round;stroke-linejoin:round;stroke-width:2}
		.st33 {fill:none;fill-rule:evenodd;font-size:12px;overflow:visible;stroke-linecap:square;stroke-miterlimit:3}
	]]>
	</style>
	<defs id="Markers">
		<g id="lend1">
			<path d="M 1 -1 L 0 0 L 1 1 " style="stroke-linecap:round;stroke-linejoin:round;fill:none"/>
		</g>
		<marker id="mrkr1-276" class="st21" orient="auto" markerUnits="strokeWidth" overflow="visible">
			<use xlink:href="#lend1" transform="scale(-2.26,-2.26) "/>
		</marker>
		<marker id="mrkr1-288" class="st24" orient="auto" markerUnits="strokeWidth" overflow="visible">
			<use xlink:href="#lend1" transform="scale(-2.26,-2.26) "/>
		</marker>
		<marker id="mrkr1-316" class="st27" orient="auto" markerUnits="strokeWidth" overflow="visible">
			<use xlink:href="#lend1" transform="scale(-2.26,-2.26) "/>
		</marker>
		<marker id="mrkr1-322" class="st29" orient="auto" markerUnits="strokeWidth" overflow="visible">
			<use xlink:href="#lend1" transform="scale(-2.26,-2.26) "/>
		</marker>
		<marker id="mrkr1-373" class="st31" orient="auto" markerUnits="strokeWidth" overflow="visible">
			<use xlink:href="#lend1" transform="scale(-2.68,-2.68) "/>
		</marker>
	</defs>
	<g>
		<g id="group4-1" transform="translate(0.12,-253.193)">
			<g id="shape5-2">
				<rect x="0" y="253.313" width="88.4592" height="24.347" rx="5.66929" ry="5.66929" class="st1"/>
			</g>
			<g id="shape6-4">
				<rect x="0" y="253.313" width="88.4592" height="24.347" rx="2.12598" ry="2.12598" class="st2"/>
			</g>
			<g id="shape7-6" transform="translate(1.8,-1.8)">
				<rect x="0" y="256.913" width="84.8592" height="20.747" rx="2.12598" ry="2.12598" class="st2"/>
			</g>
			<g id="shape8-8">
				<desc>网上查询</desc>
				<text x="26.23" y="268.19" class="st3">网上查询</text>			</g>
		</g>
		<g id="group9-10" transform="translate(0.12,-216.673)">
			<g id="shape10-11">
				<rect x="0" y="253.313" width="40.0609" height="24.347" rx="5.66929" ry="5.66929" class="st1"/>
			</g>
			<g id="shape11-13">
				<rect x="0" y="253.313" width="40.0609" height="24.347" rx="2.12598" ry="2.12598" class="st4"/>
			</g>
			<g id="shape12-15" transform="translate(1.8,-1.8)">
				<rect x="0" y="256.913" width="36.4609" height="20.747" rx="2.12598" ry="2.12598" class="st4"/>
			</g>
			<g id="shape13-17">
				<desc>微信</desc>
				<text x="11.03" y="268.19" class="st3">微信</text>			</g>
		</g>
		<g id="group14-19" transform="translate(48.5183,-216.673)">
			<g id="shape15-20">
				<rect x="0" y="253.313" width="40.0609" height="24.347" rx="5.66929" ry="5.66929" class="st1"/>
			</g>
			<g id="shape16-22">
				<rect x="0" y="253.313" width="40.0609" height="24.347" rx="2.12598" ry="2.12598" class="st4"/>
			</g>
			<g id="shape17-24" transform="translate(1.8,-1.8)">
				<rect x="0" y="256.913" width="36.4609" height="20.747" rx="2.12598" ry="2.12598" class="st4"/>
			</g>
			<g id="shape18-26">
				<desc>网站</desc>
				<text x="11.03" y="268.19" class="st3">网站</text>			</g>
		</g>
		<g id="group19-28" transform="translate(455.609,-217.037)">
			<g id="shape20-29">
				<rect x="0" y="217.157" width="71.1741" height="60.5036" rx="5.66929" ry="5.66929" class="st5"/>
			</g>
			<g id="shape21-31">
				<rect x="0" y="217.157" width="71.1741" height="60.5036" rx="2.12598" ry="2.12598" class="st6"/>
			</g>
			<g id="shape22-33" transform="translate(1.8,-1.8)">
				<rect x="0" y="220.757" width="67.5741" height="56.9036" rx="2.12598" ry="2.12598" class="st6"/>
			</g>
			<g id="shape23-35">
				<desc>知识库</desc>
				<text x="17.59" y="251.01" class="st7">知识库</text>			</g>
		</g>
		<g id="group24-37" transform="translate(365.472,-253.193)">
			<g id="shape25-38">
				<rect x="0" y="253.313" width="71.1741" height="24.347" rx="5.66929" ry="5.66929" class="st8"/>
			</g>
			<g id="shape26-40">
				<rect x="0" y="253.313" width="71.1741" height="24.347" rx="2.12598" ry="2.12598" class="st6"/>
			</g>
			<g id="shape27-42" transform="translate(1.8,-1.8)">
				<rect x="0" y="256.913" width="67.5741" height="20.747" rx="2.12598" ry="2.12598" class="st6"/>
			</g>
			<g id="shape28-44">
				<desc>挂号队列</desc>
				<text x="17.59" y="268.19" class="st9">挂号队列</text>			</g>
		</g>
		<g id="group29-46" transform="translate(292.111,-253.193)">
			<g id="shape30-47">
				<rect x="0" y="253.313" width="55.0072" height="24.347" rx="5.66929" ry="5.66929" class="st8"/>
			</g>
			<g id="shape31-49">
				<rect x="0" y="253.313" width="55.0072" height="24.347" rx="2.12598" ry="2.12598" class="st6"/>
			</g>
			<g id="shape32-51" transform="translate(1.8,-1.8)">
				<rect x="0" y="256.913" width="51.4072" height="20.747" rx="2.12598" ry="2.12598" class="st6"/>
			</g>
			<g id="shape33-53">
				<desc>排班表</desc>
				<text x="14" y="268.19" class="st9">排班表</text>			</g>
		</g>
		<g id="group34-55" transform="translate(195.67,-253.193)">
			<g id="shape35-56">
				<rect x="0" y="253.313" width="78.0881" height="24.347" rx="5.66929" ry="5.66929" class="st8"/>
			</g>
			<g id="shape36-58">
				<rect x="0" y="253.313" width="78.0881" height="24.347" rx="2.12598" ry="2.12598" class="st6"/>
			</g>
			<g id="shape37-60" transform="translate(1.8,-1.8)">
				<rect x="0" y="256.913" width="74.4881" height="20.747" rx="2.12598" ry="2.12598" class="st6"/>
			</g>
			<g id="shape38-62">
				<desc>患者信息库</desc>
				<text x="16.54" y="268.19" class="st9">患者信息库</text>			</g>
		</g>
		<g id="group39-64" transform="translate(0.12,-180.152)">
			<g id="shape40-65">
				<rect x="0" y="253.313" width="88.4592" height="24.347" rx="5.66929" ry="5.66929" class="st10"/>
			</g>
			<g id="shape41-67">
				<rect x="0" y="253.313" width="88.4592" height="24.347" rx="2.12598" ry="2.12598" class="st11"/>
			</g>
			<g id="shape42-69" transform="translate(1.8,-1.8)">
				<rect x="0" y="256.913" width="84.8592" height="20.747" rx="2.12598" ry="2.12598" class="st11"/>
			</g>
			<g id="shape43-71">
				<desc>网上预约</desc>
				<text x="26.23" y="268.19" class="st12">网上预约</text>			</g>
		</g>
		<g id="group44-73" transform="translate(0.348399,-143.632)">
			<g id="shape45-74">
				<rect x="0" y="253.313" width="88.4592" height="24.347" rx="5.66929" ry="5.66929" class="st10"/>
			</g>
			<g id="shape46-76">
				<rect x="0" y="253.313" width="88.4592" height="24.347" rx="2.12598" ry="2.12598" class="st11"/>
			</g>
			<g id="shape47-78" transform="translate(1.8,-1.8)">
				<rect x="0" y="256.913" width="84.8592" height="20.747" rx="2.12598" ry="2.12598" class="st11"/>
			</g>
			<g id="shape48-80">
				<desc>现场到访</desc>
				<text x="26.23" y="268.19" class="st12">现场到访</text>			</g>
		</g>
		<g id="group49-82" transform="translate(0.348399,-108.214)">
			<g id="shape50-83">
				<rect x="0" y="253.313" width="88.4592" height="24.347" rx="5.66929" ry="5.66929" class="st10"/>
			</g>
			<g id="shape51-85">
				<rect x="0" y="253.313" width="88.4592" height="24.347" rx="2.12598" ry="2.12598" class="st11"/>
			</g>
			<g id="shape52-87" transform="translate(1.8,-1.8)">
				<rect x="0" y="256.913" width="84.8592" height="20.747" rx="2.12598" ry="2.12598" class="st11"/>
			</g>
			<g id="shape53-89">
				<desc>电话预约</desc>
				<text x="26.23" y="268.19" class="st12">电话预约</text>			</g>
		</g>
		<g id="group54-91" transform="translate(114.735,-36.2767)">
			<g id="shape55-92">
				<rect x="0" y="253.313" width="55.0072" height="24.347" rx="5.66929" ry="5.66929" class="st10"/>
			</g>
			<g id="shape56-94">
				<rect x="0" y="253.313" width="55.0072" height="24.347" rx="2.12598" ry="2.12598" class="st11"/>
			</g>
			<g id="shape57-96" transform="translate(1.8,-1.8)">
				<rect x="0" y="256.913" width="51.4072" height="20.747" rx="2.12598" ry="2.12598" class="st11"/>
			</g>
			<g id="shape58-98">
				<desc>现金</desc>
				<text x="18.5" y="268.19" class="st12">现金</text>			</g>
		</g>
		<g id="group59-100" transform="translate(114.735,-0.12)">
			<g id="shape60-101">
				<rect x="0" y="253.313" width="55.0072" height="24.347" rx="5.66929" ry="5.66929" class="st10"/>
			</g>
			<g id="shape61-103">
				<rect x="0" y="253.313" width="55.0072" height="24.347" rx="2.12598" ry="2.12598" class="st11"/>
			</g>
			<g id="shape62-105" transform="translate(1.8,-1.8)">
				<rect x="0" y="256.913" width="51.4072" height="20.747" rx="2.12598" ry="2.12598" class="st11"/>
			</g>
			<g id="shape63-107">
				<desc>线上支付</desc>
				<text x="9.5" y="268.19" class="st12">线上支付</text>			</g>
		</g>
		<g id="group64-109" transform="translate(174.7,-36.1515)">
			<g id="shape65-110">
				<rect x="0" y="253.313" width="55.0072" height="24.347" rx="5.66929" ry="5.66929" class="st10"/>
			</g>
			<g id="shape66-112">
				<rect x="0" y="253.313" width="55.0072" height="24.347" rx="2.12598" ry="2.12598" class="st11"/>
			</g>
			<g id="shape67-114" transform="translate(1.8,-1.8)">
				<rect x="0" y="256.913" width="51.4072" height="20.747" rx="2.12598" ry="2.12598" class="st11"/>
			</g>
			<g id="shape68-116">
				<desc>刷卡</desc>
				<text x="18.5" y="268.19" class="st12">刷卡</text>			</g>
		</g>
		<g id="group69-118" transform="translate(174.7,-0.12)">
			<g id="shape70-119">
				<rect x="0" y="253.313" width="55.0072" height="24.347" rx="5.66929" ry="5.66929" class="st10"/>
			</g>
			<g id="shape71-121">
				<rect x="0" y="253.313" width="55.0072" height="24.347" rx="2.12598" ry="2.12598" class="st11"/>
			</g>
			<g id="shape72-123" transform="translate(1.8,-1.8)">
				<rect x="0" y="256.913" width="51.4072" height="20.747" rx="2.12598" ry="2.12598" class="st11"/>
			</g>
			<g id="shape73-125">
				<desc>预充值</desc>
				<text x="14" y="268.19" class="st12">预充值</text>			</g>
		</g>
		<g id="group74-127" transform="translate(114.735,-108.214)">
			<g id="shape75-128">
				<rect x="0" y="253.313" width="78.0881" height="24.347" rx="5.66929" ry="5.66929" class="st10"/>
			</g>
			<g id="shape76-130">
				<rect x="0" y="253.313" width="78.0881" height="24.347" rx="2.12598" ry="2.12598" class="st11"/>
			</g>
			<g id="shape77-132" transform="translate(1.8,-1.8)">
				<rect x="0" y="256.913" width="74.4881" height="20.747" rx="2.12598" ry="2.12598" class="st11"/>
			</g>
			<g id="shape78-134">
				<desc>收费</desc>
				<text x="30.04" y="268.19" class="st12">收费</text>			</g>
		</g>
		<g id="group79-136" transform="translate(114.735,-180.152)">
			<g id="shape80-137">
				<rect x="0" y="253.313" width="78.0881" height="24.347" rx="5.66929" ry="5.66929" class="st10"/>
			</g>
			<g id="shape81-139">
				<rect x="0" y="253.313" width="78.0881" height="24.347" rx="2.12598" ry="2.12598" class="st11"/>
			</g>
			<g id="shape82-141" transform="translate(1.8,-1.8)">
				<rect x="0" y="256.913" width="74.4881" height="20.747" rx="2.12598" ry="2.12598" class="st11"/>
			</g>
			<g id="shape83-143">
				<desc>挂号</desc>
				<text x="30.04" y="268.19" class="st12">挂号</text>			</g>
		</g>
		<g id="group84-145" transform="translate(114.735,-216.673)">
			<g id="shape85-146">
				<rect x="0" y="253.313" width="78.0881" height="24.347" rx="5.66929" ry="5.66929" class="st10"/>
			</g>
			<g id="shape86-148">
				<rect x="0" y="253.313" width="78.0881" height="24.347" rx="2.12598" ry="2.12598" class="st11"/>
			</g>
			<g id="shape87-150" transform="translate(1.8,-1.8)">
				<rect x="0" y="256.913" width="74.4881" height="20.747" rx="2.12598" ry="2.12598" class="st11"/>
			</g>
			<g id="shape88-152">
				<desc>信息补录</desc>
				<text x="21.04" y="268.19" class="st12">信息补录</text>			</g>
		</g>
		<g id="group89-154" transform="translate(365.472,-108.214)">
			<g id="shape90-155" transform="translate(0.305138,0)">
				<rect x="0" y="253.313" width="71.1741" height="24.347" rx="5.66929" ry="5.66929" class="st13"/>
			</g>
			<g id="shape91-157">
				<rect x="0" y="253.313" width="71.1741" height="24.347" rx="2.12598" ry="2.12598" class="st14"/>
			</g>
			<g id="shape92-159" transform="translate(1.8,-1.8)">
				<rect x="0" y="256.913" width="67.5741" height="20.747" rx="2.12598" ry="2.12598" class="st14"/>
			</g>
			<g id="shape93-161">
				<desc>初诊</desc>
				<text x="26.59" y="268.19" class="st3">初诊</text>			</g>
		</g>
		<g id="group94-163" transform="translate(365.472,-72.183)">
			<g id="shape95-164">
				<rect x="0" y="253.313" width="71.1741" height="24.347" rx="5.66929" ry="5.66929" class="st13"/>
			</g>
			<g id="shape96-166" transform="translate(0.305138,0)">
				<rect x="0" y="253.313" width="71.1741" height="24.347" rx="2.12598" ry="2.12598" class="st14"/>
			</g>
			<g id="shape97-168" transform="translate(2.10514,-1.8)">
				<rect x="0" y="256.913" width="67.5741" height="20.747" rx="2.12598" ry="2.12598" class="st14"/>
			</g>
			<g id="shape98-170" transform="translate(0.305138,0)">
				<desc>安排体检</desc>
				<text x="17.59" y="268.19" class="st3">安排体检</text>			</g>
		</g>
		<g id="group99-172" transform="translate(365.472,-36.1515)">
			<g id="shape100-173">
				<rect x="0" y="253.313" width="71.1741" height="24.347" rx="5.66929" ry="5.66929" class="st13"/>
			</g>
			<g id="shape101-175" transform="translate(0.305138,0)">
				<rect x="0" y="253.313" width="71.1741" height="24.347" rx="2.12598" ry="2.12598" class="st14"/>
			</g>
			<g id="shape102-177" transform="translate(2.10514,-1.8)">
				<rect x="0" y="256.913" width="67.5741" height="20.747" rx="2.12598" ry="2.12598" class="st14"/>
			</g>
			<g id="shape103-179" transform="translate(0.305138,0)">
				<desc>体检</desc>
				<text x="26.59" y="268.19" class="st3">体检</text>			</g>
		</g>
		<g id="group104-181" transform="translate(365.472,-0.12)">
			<g id="shape105-182">
				<rect x="0" y="253.313" width="71.1741" height="24.347" rx="5.66929" ry="5.66929" class="st13"/>
			</g>
			<g id="shape106-184" transform="translate(0.305138,0)">
				<rect x="0" y="253.313" width="71.1741" height="24.347" rx="2.12598" ry="2.12598" class="st14"/>
			</g>
			<g id="shape107-186" transform="translate(2.10514,-1.8)">
				<rect x="0" y="256.913" width="67.5741" height="20.747" rx="2.12598" ry="2.12598" class="st14"/>
			</g>
			<g id="shape108-188" transform="translate(0.305138,0)">
				<desc>实施治疗</desc>
				<text x="17.59" y="268.19" class="st3">实施治疗</text>			</g>
		</g>
		<g id="group109-190" transform="translate(455.609,-108.214)">
			<g id="shape110-191">
				<rect x="0" y="253.313" width="71.1741" height="24.347" rx="5.66929" ry="5.66929" class="st13"/>
			</g>
			<g id="shape111-193">
				<rect x="0" y="253.313" width="71.1741" height="24.347" rx="2.12598" ry="2.12598" class="st14"/>
			</g>
			<g id="shape112-195" transform="translate(1.8,-1.8)">
				<rect x="0" y="256.913" width="67.5741" height="20.747" rx="2.12598" ry="2.12598" class="st14"/>
			</g>
			<g id="shape113-197">
				<desc>形成方案</desc>
				<text x="17.59" y="268.19" class="st3">形成方案</text>			</g>
		</g>
		<g id="group114-199" transform="translate(455.609,-36.1515)">
			<g id="shape115-200">
				<rect x="0" y="253.313" width="71.1741" height="24.347" rx="5.66929" ry="5.66929" class="st13"/>
			</g>
			<g id="shape116-202">
				<rect x="0" y="253.313" width="71.1741" height="24.347" rx="2.12598" ry="2.12598" class="st14"/>
			</g>
			<g id="shape117-204" transform="translate(1.8,-1.8)">
				<rect x="0" y="256.913" width="67.5741" height="20.747" rx="2.12598" ry="2.12598" class="st14"/>
			</g>
			<g id="shape118-206">
				<desc>记录结论</desc>
				<text x="17.59" y="268.19" class="st3">记录结论</text>			</g>
		</g>
		<g id="group119-208" transform="translate(455.609,-0.12)">
			<g id="shape120-209">
				<rect x="0" y="253.313" width="71.1741" height="24.347" rx="5.66929" ry="5.66929" class="st13"/>
			</g>
			<g id="shape121-211">
				<rect x="0" y="253.313" width="71.1741" height="24.347" rx="2.12598" ry="2.12598" class="st14"/>
			</g>
			<g id="shape122-213" transform="translate(1.8,-1.8)">
				<rect x="0" y="256.913" width="67.5741" height="20.747" rx="2.12598" ry="2.12598" class="st14"/>
			</g>
			<g id="shape123-215">
				<desc>记录反馈</desc>
				<text x="17.59" y="268.19" class="st3">记录反馈</text>			</g>
		</g>
		<g id="group124-217" transform="translate(218.751,-180.152)">
			<g id="shape125-218">
				<rect x="0" y="253.313" width="55.0072" height="24.347" rx="5.66929" ry="5.66929" class="st15"/>
			</g>
			<g id="shape126-220">
				<rect x="0" y="253.313" width="55.0072" height="24.347" rx="2.12598" ry="2.12598" class="st16"/>
			</g>
			<g id="shape127-222" transform="translate(1.8,-1.8)">
				<rect x="0" y="256.913" width="51.4072" height="20.747" rx="2.12598" ry="2.12598" class="st16"/>
			</g>
			<g id="shape128-224">
				<desc>导诊</desc>
				<text x="18.5" y="268.19" class="st17">导诊</text>			</g>
		</g>
		<g id="group129-226" transform="translate(292.111,-108.214)">
			<g id="shape130-227">
				<rect x="0" y="253.313" width="55.0072" height="24.347" rx="5.66929" ry="5.66929" class="st15"/>
			</g>
			<g id="shape131-229">
				<rect x="0" y="253.313" width="55.0072" height="24.347" rx="2.12598" ry="2.12598" class="st16"/>
			</g>
			<g id="shape132-231" transform="translate(1.8,-1.8)">
				<rect x="0" y="256.913" width="51.4072" height="20.747" rx="2.12598" ry="2.12598" class="st16"/>
			</g>
			<g id="shape133-233">
				<desc>医师</desc>
				<text x="18.5" y="268.19" class="st17">医师</text>			</g>
		</g>
		<g id="group134-235" transform="translate(292.111,-36.1515)">
			<g id="shape135-236">
				<rect x="0" y="253.313" width="55.0072" height="24.347" rx="5.66929" ry="5.66929" class="st15"/>
			</g>
			<g id="shape136-238">
				<rect x="0" y="253.313" width="55.0072" height="24.347" rx="2.12598" ry="2.12598" class="st16"/>
			</g>
			<g id="shape137-240" transform="translate(1.8,-1.8)">
				<rect x="0" y="256.913" width="51.4072" height="20.747" rx="2.12598" ry="2.12598" class="st16"/>
			</g>
			<g id="shape138-242">
				<desc>体检师</desc>
				<text x="14" y="268.19" class="st17">体检师</text>			</g>
		</g>
		<g id="group139-244" transform="translate(292.111,-0.12)">
			<g id="shape140-245">
				<rect x="0" y="253.313" width="55.0072" height="24.347" rx="5.66929" ry="5.66929" class="st15"/>
			</g>
			<g id="shape141-247">
				<rect x="0" y="253.313" width="55.0072" height="24.347" rx="2.12598" ry="2.12598" class="st16"/>
			</g>
			<g id="shape142-249" transform="translate(1.8,-1.8)">
				<rect x="0" y="256.913" width="51.4072" height="20.747" rx="2.12598" ry="2.12598" class="st16"/>
			</g>
			<g id="shape143-251">
				<desc>治疗师</desc>
				<text x="14" y="268.19" class="st17">治疗师</text>			</g>
		</g>
		<g id="group144-253" transform="translate(218.751,-108.214)">
			<g id="shape145-254">
				<rect x="0" y="253.313" width="55.0072" height="24.347" rx="5.66929" ry="5.66929" class="st1"/>
			</g>
			<g id="shape146-256">
				<rect x="0" y="253.313" width="55.0072" height="24.347" rx="2.12598" ry="2.12598" class="st2"/>
			</g>
			<g id="shape147-258" transform="translate(1.8,-1.8)">
				<rect x="0" y="256.913" width="51.4072" height="20.747" rx="2.12598" ry="2.12598" class="st2"/>
			</g>
			<g id="shape148-260">
				<desc>分派</desc>
				<text x="18.5" y="268.19" class="st3">分派</text>			</g>
		</g>
		<g id="group149-262" transform="translate(0.348399,-0.12)">
			<g id="shape150-263">
				<rect x="0" y="217.157" width="88.4592" height="60.5036" rx="5.66929" ry="5.66929" class="st18"/>
			</g>
			<g id="shape151-265">
				<rect x="0" y="217.157" width="88.4592" height="60.5036" rx="2.12598" ry="2.12598" class="st19"/>
			</g>
			<g id="shape152-267" transform="translate(1.8,-1.8)">
				<rect x="0" y="220.757" width="84.8592" height="56.9036" rx="2.12598" ry="2.12598" class="st19"/>
			</g>
			<g id="shape153-269">
				<desc>患者</desc>
				<text x="32.23" y="251.01" class="st7">患者</text>			</g>
		</g>
		<g id="shape154-271" transform="translate(37.4914,-60.6236)">
			<path d="M7.09 277.66 L7.09 230.07" class="st20"/>
		</g>
		<g id="shape155-277" transform="translate(37.4914,-131.01)">
			<path d="M7.09 276.11 L7.09 265.04" class="st22"/>
		</g>
		<g id="shape156-280" transform="translate(51.5504,-166.979)">
			<path d="M-6.97 276.66 L-7.2 264.49" class="st22"/>
		</g>
		<g id="shape160-283" transform="translate(146.693,-203.499)">
			<path d="M7.09 276.66 L7.09 264.49" class="st23"/>
		</g>
		<g id="shape161-289" transform="translate(192.823,-185.239)">
			<path d="M0 270.57 L25.93 270.57" class="st23"/>
		</g>
		<g id="shape162-294" transform="translate(232.503,-180.152)">
			<path d="M0 277.66 L0 314.62 L-78.72 314.62 L-78.72 325.25" class="st23"/>
		</g>
		<g id="shape167-299" transform="translate(455.609,-247.288)">
			<path d="M0 277.66 L-10.63 277.66 L-10.63 259.58 L-18.96 259.58" class="st25"/>
		</g>
		<g id="shape168-302" transform="translate(365.472,-258.28)">
			<path d="M0 270.57 L-18.35 270.57" class="st25"/>
		</g>
		<g id="shape169-305" transform="translate(292.111,-258.28)">
			<path d="M0 270.57 L-18.35 270.57" class="st25"/>
		</g>
		<g id="shape170-308" transform="translate(195.67,-258.28)">
			<path d="M0 270.57 L-107.09 270.57" class="st25"/>
		</g>
		<g id="shape171-311" transform="translate(192.823,-228.846)">
			<path d="M0 277.66 L41.89 277.66 L41.89 253.31" class="st26"/>
		</g>
		<g id="shape172-317" transform="translate(347.119,-113.301)">
			<path d="M0 270.57 L18.35 270.57" class="st28"/>
		</g>
		<g id="shape173-323" transform="translate(436.646,-113.301)">
			<path d="M0 270.57 L18.96 270.57" class="st28"/>
		</g>
		<g id="shape174-328" transform="translate(394.125,-109.459)">
			<path d="M6.93 278.9 L7.24 290.59" class="st28"/>
		</g>
		<g id="shape175-333" transform="translate(394.277,-73.4274)">
			<path d="M7.09 278.9 L7.09 290.59" class="st28"/>
		</g>
		<g id="shape176-338" transform="translate(394.277,-37.3959)">
			<path d="M7.09 278.9 L7.09 290.59" class="st28"/>
		</g>
		<g id="shape177-343" transform="translate(347.119,-41.2384)">
			<path d="M0 270.57 L18.66 270.57" class="st28"/>
		</g>
		<g id="shape178-348" transform="translate(347.119,-5.20688)">
			<path d="M0 270.57 L18.66 270.57" class="st28"/>
		</g>
		<g id="shape179-353" transform="translate(436.951,-41.2384)">
			<path d="M0 270.57 L18.66 270.57" class="st28"/>
		</g>
		<g id="shape180-358" transform="translate(436.951,-5.20688)">
			<path d="M0 270.57 L18.66 270.57" class="st28"/>
		</g>
		<g id="shape181-363" transform="translate(393.972,-253.193)">
			<path d="M7.09 277.66 L7.09 398.29" class="st28"/>
		</g>
		<g id="shape185-368" transform="translate(273.758,-113.301)">
			<path d="M0 270.57 L18.35 270.57" class="st30"/>
		</g>
		<g id="shape188-374" transform="translate(239.168,-180.152)">
			<path d="M7.09 277.66 L7.09 325.25" class="st28"/>
		</g>
		<g id="shape189-379" transform="translate(312.528,-253.193)">
			<path d="M7.09 277.66 L7.09 398.29" class="st25"/>
		</g>
		<g id="shape190-382" transform="translate(312.528,-108.214)">
			<path d="M7.09 277.66 L7.09 325.38" class="st25"/>
		</g>
		<g id="shape191-385" transform="translate(312.528,-37.3959)">
			<path d="M7.09 278.9 L7.09 290.59" class="st25"/>
		</g>
		<g id="group200-388" transform="translate(88.5792,-120.388)">
			<g id="shape157-389" transform="translate(0,-64.8512)">
				<path d="M0 270.57 L26.16 270.57" class="st23"/>
			</g>
			<g id="shape158-394" transform="translate(0.228399,-35.4174)">
				<path d="M0 277.66 L10.63 277.66 L10.63 241.14 L25.93 241.14" class="st23"/>
			</g>
			<g id="shape159-399" transform="translate(0.228399,1.13687E-013)">
				<path d="M0 277.66 L10.63 277.66 L10.63 205.72 L25.93 205.72" class="st23"/>
			</g>
		</g>
		<g id="group201-404" transform="translate(519.697,-12.2935)">
			<g id="shape182-405" transform="translate(-1.19904E-014,-108.094)">
				<path d="M7.09 277.66 L17.72 277.66 L17.72 150.76 L7.09 150.76" class="st26"/>
			</g>
			<g id="shape183-410" transform="translate(-1.19904E-014,-36.0315)">
				<path d="M7.09 277.66 L17.72 277.66 L17.72 78.7 L7.09 78.7" class="st26"/>
			</g>
			<g id="shape184-415">
				<path d="M7.09 277.66 L17.72 277.66 L17.72 42.67 L7.09 42.67" class="st26"/>
			</g>
		</g>
		<g id="group202-420" transform="translate(135.152,-23.2226)">
			<g id="shape163-421" transform="translate(19.9435,-84.9919)">
				<path d="M-1.32 277.66 L-1.32 288.29 L-12.86 288.29 L-12.86 325.25" class="st32"/>
			</g>
			<g id="shape164-424" transform="translate(18.6271,-84.9919)">
				<path d="M0 277.66 L0 288.29 L48.42 288.29 L48.42 325.38" class="st32"/>
			</g>
			<g id="shape165-427" transform="translate(-1.19904E-014,-14.2358)">
				<path d="M7.09 278.84 L7.09 290.65" class="st32"/>
			</g>
			<g id="shape166-430" transform="translate(59.9643,-14.1732)">
				<path d="M7.09 278.9 L7.09 290.59" class="st32"/>
			</g>
		</g>
		<g id="group203-433" transform="translate(246.255,-12.2935)">
			<g id="shape186-434" transform="translate(2.79776E-014,-95.921)">
				<path d="M0 277.66 L0 337.55 L45.86 337.55" class="st30"/>
			</g>
			<g id="shape187-439" transform="translate(2.79776E-014,-95.921)">
				<path d="M0 277.66 L0 373.58 L45.86 373.58" class="st30"/>
			</g>
		</g>
		<g id="shape204-444" transform="translate(484.109,-60.4985)">
			<path d="M7.09 277.66 L7.09 229.94" class="st28"/>
		</g>
	</g>
</svg>
